<?xml version="1.0" encoding="UTF-8" standalone="no"?>
<!DOCTYPE svg PUBLIC "-//W3C//DTD SVG 1.1//EN"
 "http://www.w3.org/Graphics/SVG/1.1/DTD/svg11.dtd">
<!-- Generated by graphviz version 5.0.0 (20220707.1540)
 -->
<!-- Title: dependencies Pages: 1 -->
<svg width="178pt" height="247pt"
 viewBox="0.00 0.00 178.00 246.80" xmlns="http://www.w3.org/2000/svg" xmlns:xlink="http://www.w3.org/1999/xlink">
<g id="graph0" class="graph" transform="scale(1 1) rotate(0) translate(4 242.8)">
<title>dependencies</title>
<polygon fill="white" stroke="transparent" points="-4,4 -4,-242.8 174,-242.8 174,4 -4,4"/>
<text text-anchor="middle" x="85" y="-8.2" font-family="sans-serif" font-size="14.00">dependencies</text>
<g id="clust1" class="cluster">
<title>cluster_PlotlyjsGraphModule</title>
<polygon fill="none" stroke="black" stroke-dasharray="1,5" points="8,-32.8 8,-230.8 162,-230.8 162,-32.8 8,-32.8"/>
</g>
<g id="clust2" class="cluster">
<title>cluster_PlotlyjsGraphModule_declarations</title>
<polygon fill="none" stroke="black" points="20,-40.8 20,-92.8 150,-92.8 150,-40.8 20,-40.8"/>
</g>
<g id="clust5" class="cluster">
<title>cluster_PlotlyjsGraphModule_exports</title>
<polygon fill="none" stroke="black" points="18,-170.8 18,-222.8 152,-222.8 152,-170.8 18,-170.8"/>
</g>
<!-- PlotlyComponent -->
<g id="node1" class="node">
<title>PlotlyComponent</title>
<polygon fill="#ffffb3" stroke="black" points="142.29,-84.8 27.71,-84.8 27.71,-48.8 142.29,-48.8 142.29,-84.8"/>
<text text-anchor="middle" x="85" y="-62.6" font-family="Times,serif" font-size="14.00">PlotlyComponent</text>
</g>
<!-- PlotlyjsGraphModule -->
<g id="node2" class="node">
<title>PlotlyjsGraphModule</title>
<polygon fill="#8dd3c7" stroke="black" points="153.83,-149.8 150.83,-153.8 129.83,-153.8 126.83,-149.8 16.17,-149.8 16.17,-113.8 153.83,-113.8 153.83,-149.8"/>
<text text-anchor="middle" x="85" y="-127.6" font-family="Times,serif" font-size="14.00">PlotlyjsGraphModule</text>
</g>
<!-- PlotlyComponent&#45;&gt;PlotlyjsGraphModule -->
<g id="edge1" class="edge">
<title>PlotlyComponent&#45;&gt;PlotlyjsGraphModule</title>
<path fill="none" stroke="black" d="M85,-84.91C85,-84.91 85,-103.79 85,-103.79"/>
<polygon fill="black" stroke="black" points="81.5,-103.79 85,-113.79 88.5,-103.79 81.5,-103.79"/>
</g>
<!-- PlotlyComponent  -->
<g id="node3" class="node">
<title>PlotlyComponent </title>
<polygon fill="#fb8072" stroke="black" points="144.29,-214.8 25.71,-214.8 25.71,-178.8 144.29,-178.8 144.29,-214.8"/>
<text text-anchor="middle" x="85" y="-192.6" font-family="Times,serif" font-size="14.00">PlotlyComponent </text>
</g>
<!-- PlotlyjsGraphModule&#45;&gt;PlotlyComponent  -->
<g id="edge2" class="edge">
<title>PlotlyjsGraphModule&#45;&gt;PlotlyComponent </title>
<path fill="none" stroke="black" stroke-dasharray="5,2" d="M85,-149.91C85,-149.91 85,-168.79 85,-168.79"/>
<polygon fill="black" stroke="black" points="81.5,-168.79 85,-178.79 88.5,-168.79 81.5,-168.79"/>
</g>
</g>
</svg>
