<?xml version="1.0" encoding="UTF-8" standalone="no"?>
<!DOCTYPE svg PUBLIC "-//W3C//DTD SVG 1.1//EN"
 "http://www.w3.org/Graphics/SVG/1.1/DTD/svg11.dtd">
<!-- Generated by graphviz version 5.0.0 (20220707.1540)
 -->
<!-- Title: dependencies Pages: 1 -->
<svg width="452pt" height="174pt"
 viewBox="0.00 0.00 452.00 173.80" xmlns="http://www.w3.org/2000/svg" xmlns:xlink="http://www.w3.org/1999/xlink">
<g id="graph0" class="graph" transform="scale(1 1) rotate(0) translate(4 169.8)">
<title>dependencies</title>
<polygon fill="white" stroke="transparent" points="-4,4 -4,-169.8 448,-169.8 448,4 -4,4"/>
<text text-anchor="middle" x="222" y="-8.2" font-family="sans-serif" font-size="14.00">dependencies</text>
<g id="clust1" class="cluster">
<title>cluster_HomeModule</title>
<polygon fill="none" stroke="black" stroke-dasharray="1,5" points="8,-32.8 8,-157.8 436,-157.8 436,-32.8 8,-32.8"/>
</g>
<g id="clust2" class="cluster">
<title>cluster_HomeModule_declarations</title>
<polygon fill="none" stroke="black" points="302,-40.8 302,-92.8 428,-92.8 428,-40.8 302,-40.8"/>
</g>
<g id="clust4" class="cluster">
<title>cluster_HomeModule_imports</title>
<polygon fill="none" stroke="black" points="16,-40.8 16,-92.8 294,-92.8 294,-40.8 16,-40.8"/>
</g>
<!-- MainComponent -->
<g id="node1" class="node">
<title>MainComponent</title>
<polygon fill="#ffffb3" stroke="black" points="420.38,-84.8 309.62,-84.8 309.62,-48.8 420.38,-48.8 420.38,-84.8"/>
<text text-anchor="middle" x="365" y="-62.6" font-family="Times,serif" font-size="14.00">MainComponent</text>
</g>
<!-- HomeModule -->
<g id="node2" class="node">
<title>HomeModule</title>
<polygon fill="#8dd3c7" stroke="black" points="263.77,-149.8 260.77,-153.8 239.77,-153.8 236.77,-149.8 170.23,-149.8 170.23,-113.8 263.77,-113.8 263.77,-149.8"/>
<text text-anchor="middle" x="217" y="-127.6" font-family="Times,serif" font-size="14.00">HomeModule</text>
</g>
<!-- MainComponent&#45;&gt;HomeModule -->
<g id="edge1" class="edge">
<title>MainComponent&#45;&gt;HomeModule</title>
<path fill="none" stroke="black" d="M365,-84.91C365,-104.14 365,-131.8 365,-131.8 365,-131.8 273.83,-131.8 273.83,-131.8"/>
<polygon fill="black" stroke="black" points="273.83,-128.3 263.83,-131.8 273.83,-135.3 273.83,-128.3"/>
</g>
<!-- PlotlyjsGraphModule -->
<g id="node3" class="node">
<title>PlotlyjsGraphModule</title>
<polygon fill="#8dd3c7" stroke="black" points="285.83,-84.8 282.83,-88.8 261.83,-88.8 258.83,-84.8 148.17,-84.8 148.17,-48.8 285.83,-48.8 285.83,-84.8"/>
<text text-anchor="middle" x="217" y="-62.6" font-family="Times,serif" font-size="14.00">PlotlyjsGraphModule</text>
</g>
<!-- PlotlyjsGraphModule&#45;&gt;HomeModule -->
<g id="edge2" class="edge">
<title>PlotlyjsGraphModule&#45;&gt;HomeModule</title>
<path fill="none" stroke="black" d="M217,-84.91C217,-84.91 217,-103.79 217,-103.79"/>
<polygon fill="black" stroke="black" points="213.5,-103.79 217,-113.79 220.5,-103.79 213.5,-103.79"/>
</g>
<!-- ToolBarModule -->
<g id="node4" class="node">
<title>ToolBarModule</title>
<polygon fill="#8dd3c7" stroke="black" points="130.21,-84.8 127.21,-88.8 106.21,-88.8 103.21,-84.8 23.79,-84.8 23.79,-48.8 130.21,-48.8 130.21,-84.8"/>
<text text-anchor="middle" x="77" y="-62.6" font-family="Times,serif" font-size="14.00">ToolBarModule</text>
</g>
<!-- ToolBarModule&#45;&gt;HomeModule -->
<g id="edge3" class="edge">
<title>ToolBarModule&#45;&gt;HomeModule</title>
<path fill="none" stroke="black" d="M77,-84.91C77,-104.14 77,-131.8 77,-131.8 77,-131.8 159.99,-131.8 159.99,-131.8"/>
<polygon fill="black" stroke="black" points="159.99,-135.3 169.99,-131.8 159.99,-128.3 159.99,-135.3"/>
</g>
</g>
</svg>
