<?xml version="1.0" encoding="UTF-8" standalone="no"?>
<!DOCTYPE svg PUBLIC "-//W3C//DTD SVG 1.1//EN"
 "http://www.w3.org/Graphics/SVG/1.1/DTD/svg11.dtd">
<!-- Generated by graphviz version 5.0.0 (20220707.1540)
 -->
<!-- Title: dependencies Pages: 1 -->
<svg width="778pt" height="247pt"
 viewBox="0.00 0.00 778.00 246.80" xmlns="http://www.w3.org/2000/svg" xmlns:xlink="http://www.w3.org/1999/xlink">
<g id="graph0" class="graph" transform="scale(1 1) rotate(0) translate(4 242.8)">
<title>dependencies</title>
<polygon fill="white" stroke="transparent" points="-4,4 -4,-242.8 774,-242.8 774,4 -4,4"/>
<text text-anchor="middle" x="385" y="-8.2" font-family="sans-serif" font-size="14.00">dependencies</text>
<g id="clust1" class="cluster">
<title>cluster_AppModule</title>
<polygon fill="none" stroke="black" stroke-dasharray="1,5" points="8,-32.8 8,-230.8 762,-230.8 762,-32.8 8,-32.8"/>
</g>
<g id="clust2" class="cluster">
<title>cluster_AppModule_declarations</title>
<polygon fill="none" stroke="black" points="632,-40.8 632,-92.8 754,-92.8 754,-40.8 632,-40.8"/>
</g>
<g id="clust4" class="cluster">
<title>cluster_AppModule_imports</title>
<polygon fill="none" stroke="black" points="368,-40.8 368,-92.8 624,-92.8 624,-40.8 368,-40.8"/>
</g>
<g id="clust6" class="cluster">
<title>cluster_AppModule_bootstrap</title>
<polygon fill="none" stroke="black" points="361,-170.8 361,-222.8 485,-222.8 485,-170.8 361,-170.8"/>
</g>
<g id="clust7" class="cluster">
<title>cluster_AppModule_providers</title>
<polygon fill="none" stroke="black" points="16,-40.8 16,-92.8 360,-92.8 360,-40.8 16,-40.8"/>
</g>
<!-- AppComponent -->
<g id="node1" class="node">
<title>AppComponent</title>
<polygon fill="#ffffb3" stroke="black" points="745.94,-84.8 640.06,-84.8 640.06,-48.8 745.94,-48.8 745.94,-84.8"/>
<text text-anchor="middle" x="693" y="-62.6" font-family="Times,serif" font-size="14.00">AppComponent</text>
</g>
<!-- AppModule -->
<g id="node2" class="node">
<title>AppModule</title>
<polygon fill="#8dd3c7" stroke="black" points="464.66,-149.8 461.66,-153.8 440.66,-153.8 437.66,-149.8 381.34,-149.8 381.34,-113.8 464.66,-113.8 464.66,-149.8"/>
<text text-anchor="middle" x="423" y="-127.6" font-family="Times,serif" font-size="14.00">AppModule</text>
</g>
<!-- AppComponent&#45;&gt;AppModule -->
<g id="edge1" class="edge">
<title>AppComponent&#45;&gt;AppModule</title>
<path fill="none" stroke="black" d="M693,-85.08C693,-106.12 693,-137.8 693,-137.8 693,-137.8 474.89,-137.8 474.89,-137.8"/>
<polygon fill="black" stroke="black" points="474.89,-134.3 464.89,-137.8 474.89,-141.3 474.89,-134.3"/>
</g>
<!-- AppComponent  -->
<g id="node5" class="node">
<title>AppComponent </title>
<polygon fill="#80b1d3" stroke="black" points="477.44,-214.8 368.56,-214.8 368.56,-178.8 477.44,-178.8 477.44,-214.8"/>
<text text-anchor="middle" x="423" y="-192.6" font-family="Times,serif" font-size="14.00">AppComponent </text>
</g>
<!-- AppModule&#45;&gt;AppComponent  -->
<g id="edge4" class="edge">
<title>AppModule&#45;&gt;AppComponent </title>
<path fill="none" stroke="black" stroke-dasharray="1,5" d="M423,-149.91C423,-149.91 423,-168.79 423,-168.79"/>
<polygon fill="black" stroke="black" points="419.5,-168.79 423,-178.79 426.5,-168.79 419.5,-168.79"/>
</g>
<!-- AppRoutingModule -->
<g id="node3" class="node">
<title>AppRoutingModule</title>
<polygon fill="#8dd3c7" stroke="black" points="616.28,-84.8 613.28,-88.8 592.28,-88.8 589.28,-84.8 487.72,-84.8 487.72,-48.8 616.28,-48.8 616.28,-84.8"/>
<text text-anchor="middle" x="552" y="-62.6" font-family="Times,serif" font-size="14.00">AppRoutingModule</text>
</g>
<!-- AppRoutingModule&#45;&gt;AppModule -->
<g id="edge2" class="edge">
<title>AppRoutingModule&#45;&gt;AppModule</title>
<path fill="none" stroke="black" d="M552,-84.82C552,-102.17 552,-125.8 552,-125.8 552,-125.8 474.88,-125.8 474.88,-125.8"/>
<polygon fill="black" stroke="black" points="474.88,-122.3 464.88,-125.8 474.88,-129.3 474.88,-122.3"/>
</g>
<!-- HomeModule -->
<g id="node4" class="node">
<title>HomeModule</title>
<polygon fill="#8dd3c7" stroke="black" points="469.77,-84.8 466.77,-88.8 445.77,-88.8 442.77,-84.8 376.23,-84.8 376.23,-48.8 469.77,-48.8 469.77,-84.8"/>
<text text-anchor="middle" x="423" y="-62.6" font-family="Times,serif" font-size="14.00">HomeModule</text>
</g>
<!-- HomeModule&#45;&gt;AppModule -->
<g id="edge3" class="edge">
<title>HomeModule&#45;&gt;AppModule</title>
<path fill="none" stroke="black" d="M423,-84.91C423,-84.91 423,-103.79 423,-103.79"/>
<polygon fill="black" stroke="black" points="419.5,-103.79 423,-113.79 426.5,-103.79 419.5,-103.79"/>
</g>
<!-- NgxBarStackService -->
<g id="node6" class="node">
<title>NgxBarStackService</title>
<ellipse fill="#fdb462" stroke="black" cx="260" cy="-66.8" rx="92.04" ry="18"/>
<text text-anchor="middle" x="260" y="-62.6" font-family="Times,serif" font-size="14.00">NgxBarStackService</text>
</g>
<!-- NgxBarStackService&#45;&gt;AppModule -->
<g id="edge5" class="edge">
<title>NgxBarStackService&#45;&gt;AppModule</title>
<path fill="none" stroke="black" d="M260,-84.82C260,-102.17 260,-125.8 260,-125.8 260,-125.8 371.02,-125.8 371.02,-125.8"/>
<polygon fill="black" stroke="black" points="371.02,-129.3 381.02,-125.8 371.02,-122.3 371.02,-129.3"/>
</g>
<!-- PlotlyService -->
<g id="node7" class="node">
<title>PlotlyService</title>
<ellipse fill="#fdb462" stroke="black" cx="87" cy="-66.8" rx="63.14" ry="18"/>
<text text-anchor="middle" x="87" y="-62.6" font-family="Times,serif" font-size="14.00">PlotlyService</text>
</g>
<!-- PlotlyService&#45;&gt;AppModule -->
<g id="edge6" class="edge">
<title>PlotlyService&#45;&gt;AppModule</title>
<path fill="none" stroke="black" d="M87,-85.08C87,-106.12 87,-137.8 87,-137.8 87,-137.8 371.12,-137.8 371.12,-137.8"/>
<polygon fill="black" stroke="black" points="371.12,-141.3 381.12,-137.8 371.12,-134.3 371.12,-141.3"/>
</g>
</g>
</svg>
